<svg t="1715088594658" class="icon" viewBox="0 0 1025 1024" version="1.1" xmlns="http://www.w3.org/2000/svg" p-id="15242" width="32" height="32"><path d="M677.908297 276.670373l0.795357 1.47709a159.071262 159.071262 0 0 0 67.150797 67.150797l1.47709 0.795357c4.544893 2.386069 9.203409 4.431271 13.975547 6.36285a159.071262 159.071262 0 0 0 215.882426-128.7341l-23.747067 23.747067A124.984563 124.984563 0 0 1 776.53248 70.673089l23.747067-23.747067A159.071262 159.071262 0 0 0 671.772692 262.694827c1.704335 4.772138 3.749537 9.998765 6.135605 13.975546zM634.277323 451.421516L707.222859 374.953688A206.338151 206.338151 0 0 1 649.048226 316.779055l-77.490429 73.968137a161.230086 161.230086 0 0 1 14.998147 12.725701zM374.763922 572.656542L66.847408 860.802771A67.491664 67.491664 0 0 0 46.849878 908.978638a68.173398 68.173398 0 0 0 68.173398 68.173398 67.491664 67.491664 0 0 0 48.175867-19.99753l285.76016-305.416822-55.447697-55.334075a146.118316 146.118316 0 0 1-18.747684-23.747067zM115.023276 931.703104a22.724466 22.724466 0 1 1 22.724466-22.724466 22.724466 22.724466 0 0 1-22.724466 22.724466z m53.970606-824.670869L73.210258 51.130048 52.530994 71.809312l55.902186 95.783624z m771.609242 714.911699l-386.315921-386.315922a90.897864 90.897864 0 0 0-128.620478 128.620478l386.315922 386.315921a90.897864 90.897864 0 0 0 128.620477-128.620477zM876.292885 908.978638a22.724466 22.724466 0 0 1-16.020748-6.703717l-227.24466-227.24466A22.724466 22.724466 0 0 1 626.32376 659.009513a22.724466 22.724466 0 0 1 22.724466-22.724466 22.724466 22.724466 0 0 1 16.020748 6.703717l227.24466 227.24466A22.724466 22.724466 0 0 1 899.017351 886.254172a22.724466 22.724466 0 0 1-22.724466 22.724466z" fill="#FFFFFF" p-id="15243"></path><path d="M940.603124 821.943934l-386.315921-386.315922a90.897864 90.897864 0 0 0-128.620478 128.620478l386.315922 386.315921a90.897864 90.897864 0 0 0 128.620477-128.620477zM876.292885 908.978638a22.724466 22.724466 0 0 1-16.020748-6.703717l-227.24466-227.24466A22.724466 22.724466 0 0 1 626.32376 659.009513a22.724466 22.724466 0 0 1 22.724466-22.724466 22.724466 22.724466 0 0 1 16.020748 6.703717l227.24466 227.24466A22.724466 22.724466 0 0 1 899.017351 886.254172a22.724466 22.724466 0 0 1-22.724466 22.724466z" fill="#EE6A56" p-id="15244"></path><path d="M953.328825 247.469434A124.984563 124.984563 0 0 1 776.53248 70.673089l24.087934-23.974311a159.071262 159.071262 0 1 0 176.682722 176.682722z" fill="#86AEDD" p-id="15245"></path><path d="M433.165799 636.285047l-22.724466-22.724466v22.724466z m-45.448932 22.724466h22.724466v-22.724466h-22.724466z m-22.724466-45.448932v22.724466h22.724466v-22.724466z m22.724466 90.897864h12.612079l10.112387-11.362233v-11.362233h-22.724466z m-56.811165-90.897864l-11.362233 10.112387V636.285047h22.724466v-22.724466z m56.811165-23.747067a157.821416 157.821416 0 0 1-12.952945-17.156972l-9.771521 8.976164V590.836115h22.724466zM410.441333 681.733979h11.362233l11.362233-12.839323V659.009513h-22.724466z m-45.448932-22.724466v22.724466h22.724466v-22.724466z m68.173398-22.724466v22.724466h9.203409l6.590095-7.271829z m-90.897864 0v22.724466h22.724466v-22.724466z m22.724466-45.448932h-9.885143L342.267935 602.198348v11.362233h22.724466z m45.448932 22.724466l-16.929727-16.816105c-1.704335-1.817957-3.181425-3.749537-4.88576-5.567494H387.716867v22.724466z" opacity=".1" p-id="15246"></path><path d="M667.568665 484.712859L751.308322 397.678154a204.520194 204.520194 0 0 0 252.58244-281.101644l-90.897864 90.897864A67.491664 67.491664 0 0 1 864.930652 227.24466a68.173398 68.173398 0 0 1-68.173398-68.173398 67.491664 67.491664 0 0 1 19.99753-48.175868l90.897864-90.897864A204.520194 204.520194 0 0 0 626.891871 272.693592l-100.669384 95.670001a135.551439 135.551439 0 0 0-113.62233 18.861307L186.718966 153.61739l35.222922-35.336545A22.724466 22.724466 0 0 0 228.645605 102.260097a22.724466 22.724466 0 0 0-11.362233-19.543041L80.936577 3.067803a22.724466 22.724466 0 0 0-27.382982 3.635914l-45.448932 45.448932A22.724466 22.724466 0 0 0 4.582371 79.535631l79.535631 136.346796A22.724466 22.724466 0 0 0 103.661043 227.24466a22.724466 22.724466 0 0 0 16.020748-6.703718l34.882055-34.882055 225.76757 233.493888a136.346796 136.346796 0 0 0-23.974312 108.28208L34.692288 828.647651a113.62233 113.62233 0 1 0 160.661975 160.661975l285.987404-305.189578 298.48586 298.599482a136.346796 136.346796 0 1 0 193.157961-193.15796zM108.43318 167.592936L52.530994 71.809312 73.210258 51.130048l95.783624 55.902187zM800.279547 46.926022l-23.747067 23.747067a124.984563 124.984563 0 0 0 176.796345 176.796345l23.747067-23.747067A159.071262 159.071262 0 0 1 761.307088 352.229222c-4.772138-1.93158-9.430653-3.976782-13.975547-6.36285l-1.47709-0.795356a159.071262 159.071262 0 0 1-67.150797-67.150797l-0.795357-1.477091c-2.386069-4.544893-4.431271-9.203409-6.36285-13.975546a159.071262 159.071262 0 0 1 128.7341-215.882427zM649.048226 316.665433A204.520194 204.520194 0 0 0 707.336481 374.953688l-72.604669 76.581451-48.28949-48.175868a143.277758 143.277758 0 0 0-15.452637-13.18019zM163.199143 957.154506A67.491664 67.491664 0 0 1 115.023276 977.152036a68.173398 68.173398 0 0 1-68.173398-68.173398 67.491664 67.491664 0 0 1 19.99753-48.175867l308.030136-287.918984a148.73163 148.73163 0 0 0 18.634062 23.519822l55.334075 55.220452zM876.292885 977.152036a90.897864 90.897864 0 0 1-64.310238-26.587625l-306.780291-306.78029-25.792269-25.792269-54.197851-54.197852a93.283933 93.283933 0 0 1-16.702483-22.724465 91.806842 91.806842 0 0 1-3.976781-9.089787 4.772138 4.772138 0 0 0 0-1.136223c-0.908979-2.726936-1.704335-5.453872-2.499691-8.180808a20.452019 20.452019 0 0 0 0-2.158824q-0.908979-3.749537-1.363468-7.839941v-2.386069A103.169075 103.169075 0 0 1 399.0791 499.938251v-7.385451c0-2.499691 0-4.090404 0.795356-6.135606A90.897864 90.897864 0 0 1 483.273246 409.040387H489.976964a96.010869 96.010869 0 0 1 11.362233 0.795357h2.726936a95.556379 95.556379 0 0 1 9.885143 2.158824h1.022601a89.307151 89.307151 0 0 1 22.042731 9.77152 96.124491 96.124491 0 0 1 17.04335 13.18019L603.599294 484.826481l32.723231 32.723231 304.507844 304.394222A90.897864 90.897864 0 0 1 876.292885 977.152036z m16.020749-106.918612l-227.24466-227.24466A22.724466 22.724466 0 0 0 649.048226 636.285047a22.724466 22.724466 0 0 0-22.724466 22.724466 22.724466 22.724466 0 0 0 6.703717 16.020748l227.24466 227.24466A22.724466 22.724466 0 0 0 876.292885 908.978638a22.724466 22.724466 0 0 0 22.724466-22.724466 22.724466 22.724466 0 0 0-6.703717-16.020748zM115.023276 886.254172a22.724466 22.724466 0 1 0 22.724466 22.724466 22.724466 22.724466 0 0 0-22.724466-22.724466z" opacity=".85" p-id="15247"></path></svg>